# This file uses centimeters as units for non-parametric coordinates.

mtllib school_front.mtl
g default
v 12.646798 1.774400 8.440697
v 19.653637 1.774400 8.440697
v 19.653637 5.537609 8.440697
v 12.646798 5.537609 8.440697
v 12.646798 1.774400 8.168864
v 12.646798 5.537609 8.168864
v 19.653637 1.774400 8.168864
v 19.653637 5.537609 8.168864
v 4.861971 1.774400 8.440697
v 11.868809 1.774400 8.440697
v 11.868809 5.537609 8.440697
v 4.861971 5.537609 8.440697
v 4.861971 1.774400 8.168864
v 4.861971 5.537609 8.168864
v 11.868809 1.774400 8.168864
v 11.868809 5.537609 8.168864
v 3.513352 6.000000 8.168864
v 3.511269 -0.097954 8.168864
v 12.285728 -0.097954 8.168864
v 12.285728 8.302180 8.168864
v 12.285728 -0.097954 -7.999542
v 20.883146 8.302180 8.168864
v 20.866850 -0.097954 8.168864
v -0.000261 8.302180 8.168864
v 0.000000 5.998192 8.168864
v 20.866741 -0.097954 -7.999542
v 20.883146 8.302180 -7.999542
v 21.436607 8.297860 8.577307
v 12.285728 8.297860 8.577307
v 0.000000 8.297860 8.577307
v 21.436607 8.297860 -8.000000
v 21.436607 9.192780 8.577307
v 12.285728 9.192780 8.577307
v -0.000261 9.192780 8.168864
v 0.000000 9.192780 8.577307
v 20.883146 9.192780 -7.999542
v 21.436607 9.192780 -8.000000
v 20.883146 9.192780 8.168864
v 12.285728 9.192780 8.168864
v 12.285728 9.192780 -7.997857
v -0.000261 9.192780 -7.995580
v 3.528480 -0.097954 -7.999542
v -12.647321 1.774400 8.440697
v -19.654160 1.774400 8.440697
v -19.654160 5.537609 8.440697
v -12.647321 5.537609 8.440697
v -12.647321 1.774400 8.168864
v -12.647321 5.537609 8.168864
v -19.654160 1.774400 8.168864
v -19.654160 5.537609 8.168864
v -4.862494 1.774400 8.440697
v -11.869331 1.774400 8.440697
v -11.869331 5.537609 8.440697
v -4.862494 5.537609 8.440697
v -4.862494 1.774400 8.168864
v -4.862494 5.537609 8.168864
v -11.869331 1.774400 8.168864
v -11.869331 5.537609 8.168864
v -3.513875 6.000000 8.168864
v -3.511792 -0.097954 8.168864
v -12.286251 -0.097954 8.168864
v -12.286251 8.302180 8.168864
v -12.286251 -0.097954 -7.999542
v -3.529003 -0.097954 -7.999542
v -20.883669 8.302180 8.168864
v -20.883669 -0.097954 -7.999542
v -20.883669 -0.097954 8.168864
v -20.883669 8.302180 -7.999542
v -21.437130 8.297860 8.577307
v -12.286251 8.297860 8.577307
v -0.000523 8.297860 8.577307
v -21.437130 8.297860 -8.000000
v -21.437130 9.192780 8.577307
v -12.286251 9.192780 8.577307
v -0.000523 9.192780 8.577307
v -20.883669 9.192780 -7.999542
v -21.437130 9.192780 -8.000000
v -20.883669 9.192780 8.168864
v -12.286251 9.192780 8.168864
v -12.286251 9.192780 -7.997857
v 3.513352 6.000000 8.555662
v 3.511269 -0.097954 8.555662
v -0.000000 5.998192 8.555662
v -3.513875 6.000000 8.555662
v -3.511792 -0.097954 8.555662
vt 0.375000 0.000000
vt 0.625000 0.000000
vt 0.625000 0.250000
vt 0.375000 0.250000
vt 0.338962 0.000000
vt 0.338962 0.250000
vt 0.625000 0.963962
vt 0.625000 1.000000
vt 0.375000 1.000000
vt 0.375000 0.963962
vt 0.661038 0.250000
vt 0.661038 0.000000
vt 0.375000 0.286038
vt 0.625000 0.286038
vt 0.375000 0.000000
vt 0.625000 0.000000
vt 0.625000 0.250000
vt 0.375000 0.250000
vt 0.338962 0.000000
vt 0.338962 0.250000
vt 0.625000 0.963962
vt 0.625000 1.000000
vt 0.375000 1.000000
vt 0.375000 0.963962
vt 0.661038 0.250000
vt 0.661038 0.000000
vt 0.375000 0.286038
vt 0.625000 0.286038
vt 0.782064 0.090210
vt 0.774460 0.100896
vt 0.776570 0.000000
vt 0.783436 0.029735
vt 0.825686 0.000000
vt 0.822513 0.025598
vt 0.821864 0.113218
vt 0.820808 0.076538
vt 0.375000 0.809663
vt 0.625000 0.799314
vt 0.625000 0.848430
vt 0.875000 0.112357
vt 0.826962 0.025223
vt 0.825287 0.075936
vt 0.867611 0.075455
vt 0.867781 0.025081
vt 0.875000 0.000000
vt 0.750050 0.114382
vt 0.750050 0.098693
vt 0.375000 0.750000
vt 0.625000 0.750000
vt 0.375000 0.632708
vt 0.625000 0.637643
vt 0.875000 0.112357
vt 0.821864 0.113218
vt 0.750050 0.114382
vt 0.375000 0.632708
vt 0.625000 0.637643
vt 0.875000 0.128536
vt 0.821864 0.128494
vt 0.750050 0.128438
vt 0.750050 0.128438
vt 0.375000 0.617695
vt 0.375000 0.617695
vt 0.625000 0.621464
vt 0.875000 0.128536
vt 0.821864 0.128494
vt 0.625000 0.621464
vt 0.574738 1.000000
vt 0.574738 0.000000
vt 1.000000 0.000000
vt 1.000000 1.000000
vt 0.000000 0.000000
vt 0.000000 1.000000
vt 0.375000 0.857439
vt 0.375000 0.000000
vt 0.625000 0.000000
vt 0.625000 0.250000
vt 0.375000 0.250000
vt 0.338962 0.000000
vt 0.338962 0.250000
vt 0.625000 0.963962
vt 0.625000 1.000000
vt 0.375000 1.000000
vt 0.375000 0.963962
vt 0.661038 0.250000
vt 0.661038 0.000000
vt 0.375000 0.286038
vt 0.625000 0.286038
vt 0.375000 0.000000
vt 0.625000 0.000000
vt 0.625000 0.250000
vt 0.375000 0.250000
vt 0.338962 0.000000
vt 0.338962 0.250000
vt 0.625000 0.963962
vt 0.625000 1.000000
vt 0.375000 1.000000
vt 0.375000 0.963962
vt 0.661038 0.250000
vt 0.661038 0.000000
vt 0.375000 0.286038
vt 0.625000 0.286038
vt 0.782064 0.090210
vt 0.774460 0.100896
vt 0.776570 0.000000
vt 0.783436 0.029735
vt 0.825686 0.000000
vt 0.822513 0.025598
vt 0.821864 0.113218
vt 0.820808 0.076538
vt 0.375000 0.809663
vt 0.625000 0.799314
vt 0.625000 0.848430
vt 0.375000 0.857439
vt 0.825287 0.075936
vt 0.826962 0.025223
vt 0.875000 0.112357
vt 0.867611 0.075455
vt 0.867781 0.025081
vt 0.750050 0.114382
vt 0.750050 0.098693
vt 0.375000 0.750000
vt 0.625000 0.750000
vt 0.375000 0.632708
vt 0.625000 0.637643
vt 0.875000 0.112357
vt 0.821864 0.113218
vt 0.750050 0.114382
vt 0.375000 0.632708
vt 0.625000 0.637643
vt 0.875000 0.128536
vt 0.821864 0.128494
vt 0.750050 0.128438
vt 0.750050 0.128438
vt 0.375000 0.617695
vt 0.375000 0.617695
vt 0.625000 0.621464
vt 0.875000 0.128536
vt 0.821864 0.128494
vt 0.625000 0.621464
vt 0.574738 1.000000
vt 0.574738 0.000000
vt 1.000000 0.000000
vt 1.000000 1.000000
vt 0.000000 0.000000
vt 0.000000 1.000000
vt 0.875000 0.000000
vt 0.000000 0.000000
vt 1.000000 0.000000
vt 1.000000 1.000000
vt 0.000000 1.000000
vt 0.000000 0.000000
vt 1.000000 0.000000
vt 1.000000 1.000000
vt 0.000000 1.000000
vt 0.000000 0.000000
vt 1.000000 0.000000
vt 1.000000 1.000000
vt 0.000000 1.000000
vt 0.000000 0.000000
vt 1.000000 0.000000
vt 1.000000 1.000000
vt 0.000000 1.000000
vt 0.000000 0.000000
vt 1.000000 0.000000
vt 1.000000 1.000000
vt 0.000000 1.000000
vt 0.000000 0.000000
vt 1.000000 0.000000
vt 1.000000 1.000000
vt 0.000000 1.000000
vn 0.000000 0.000000 1.000000
vn 0.000000 0.000000 1.000000
vn 0.000000 0.000000 1.000000
vn 0.000000 0.000000 1.000000
vn -1.000000 0.000000 0.000000
vn -1.000000 0.000000 0.000000
vn -1.000000 0.000000 0.000000
vn -1.000000 0.000000 0.000000
vn 0.000000 -1.000000 0.000000
vn 0.000000 -1.000000 0.000000
vn 0.000000 -1.000000 0.000000
vn 0.000000 -1.000000 0.000000
vn 1.000000 0.000000 0.000000
vn 1.000000 0.000000 0.000000
vn 1.000000 0.000000 0.000000
vn 1.000000 0.000000 0.000000
vn 0.000000 1.000000 0.000000
vn 0.000000 1.000000 0.000000
vn 0.000000 1.000000 0.000000
vn 0.000000 1.000000 0.000000
vn 0.000000 0.000000 1.000000
vn 0.000000 0.000000 1.000000
vn 0.000000 0.000000 1.000000
vn 0.000000 0.000000 1.000000
vn -1.000000 0.000000 0.000000
vn -1.000000 0.000000 0.000000
vn -1.000000 0.000000 0.000000
vn -1.000000 0.000000 0.000000
vn 0.000000 -1.000000 0.000000
vn 0.000000 -1.000000 0.000000
vn 0.000000 -1.000000 0.000000
vn 0.000000 -1.000000 0.000000
vn 1.000000 0.000000 0.000000
vn 1.000000 0.000000 0.000000
vn 1.000000 0.000000 0.000000
vn 1.000000 0.000000 0.000000
vn 0.000000 1.000000 0.000000
vn 0.000000 1.000000 0.000000
vn 0.000000 1.000000 0.000000
vn 0.000000 1.000000 0.000000
vn 0.000000 0.000000 1.000000
vn 0.000000 0.000000 1.000000
vn 0.000000 0.000000 1.000000
vn 0.000000 0.000000 1.000000
vn 0.000000 0.000000 1.000000
vn -0.000000 0.000000 1.000000
vn 0.000000 0.000000 1.000000
vn -0.000000 0.000000 1.000000
vn 0.000000 -1.000000 0.000000
vn 0.000000 -1.000000 0.000000
vn 0.000000 -1.000000 0.000000
vn 0.000000 -1.000000 0.000000
vn 0.000000 0.000000 1.000000
vn 0.000000 0.000000 1.000000
vn 0.000000 0.000000 1.000000
vn 0.000000 0.000000 1.000000
vn 0.000000 0.000000 1.000000
vn -0.000000 0.000000 1.000000
vn -0.000000 0.000000 1.000000
vn 0.000000 -1.000000 0.000000
vn 0.000000 -1.000000 0.000000
vn 0.999998 -0.001947 -0.000003
vn 0.999998 -0.001947 -0.000003
vn 0.999998 -0.001947 -0.000003
vn 0.999998 -0.001947 -0.000003
vn 0.000000 -0.999944 -0.010575
vn -0.005367 -0.999980 -0.003303
vn -0.006137 -0.999979 -0.002261
vn 0.000000 -0.999944 -0.010575
vn 0.000000 -0.999944 -0.010576
vn 0.000000 -0.999944 -0.010576
vn -0.007805 -0.999970 0.000000
vn -0.007805 -0.999970 0.000000
vn 0.000000 0.000000 1.000000
vn 0.000000 0.000000 1.000000
vn 0.000000 0.000000 1.000000
vn 0.000000 0.000000 1.000000
vn -1.000000 0.000000 0.000640
vn -1.000000 0.000000 0.000640
vn -1.000000 0.000000 0.000640
vn -1.000000 0.000000 0.000640
vn 0.000000 0.000000 1.000000
vn 0.000000 0.000000 1.000000
vn -0.000827 0.000000 -1.000000
vn -0.000827 0.000000 -1.000000
vn -0.000827 0.000000 -1.000000
vn -0.000827 0.000000 -1.000000
vn 1.000000 0.000000 0.000000
vn 1.000000 0.000000 0.000000
vn 1.000000 0.000000 0.000000
vn 1.000000 0.000000 0.000000
vn 0.000000 1.000000 0.000000
vn 0.000000 1.000000 0.000000
vn 0.000000 1.000000 0.000000
vn 0.000000 1.000000 0.000000
vn 0.000000 1.000000 0.000000
vn 0.000000 1.000000 0.000000
vn -0.000000 1.000000 0.000000
vn -0.000000 1.000000 0.000000
vn 0.000000 1.000000 0.000000
vn 0.000000 1.000000 0.000000
vn 0.000000 1.000000 0.000000
vn 0.000000 0.000000 1.000000
vn 0.000000 0.000000 1.000000
vn 0.000000 0.000000 1.000000
vn 0.000000 0.000000 1.000000
vn 0.000000 0.000000 1.000000
vn 1.000000 0.000000 0.000000
vn 1.000000 0.000000 0.000000
vn 1.000000 0.000000 0.000000
vn 1.000000 0.000000 0.000000
vn 0.000000 -1.000000 0.000000
vn 0.000000 -1.000000 0.000000
vn 0.000000 -1.000000 0.000000
vn 0.000000 -1.000000 0.000000
vn -1.000000 0.000000 0.000000
vn -1.000000 0.000000 0.000000
vn -1.000000 0.000000 0.000000
vn -1.000000 0.000000 0.000000
vn 0.000000 1.000000 0.000000
vn 0.000000 1.000000 0.000000
vn 0.000000 1.000000 0.000000
vn 0.000000 1.000000 0.000000
vn 0.000000 0.000000 1.000000
vn 0.000000 0.000000 1.000000
vn 0.000000 0.000000 1.000000
vn 0.000000 0.000000 1.000000
vn 1.000000 0.000000 0.000000
vn 1.000000 0.000000 0.000000
vn 1.000000 0.000000 0.000000
vn 1.000000 0.000000 0.000000
vn 0.000000 -1.000000 0.000000
vn 0.000000 -1.000000 0.000000
vn 0.000000 -1.000000 0.000000
vn 0.000000 -1.000000 0.000000
vn -1.000000 0.000000 0.000000
vn -1.000000 0.000000 0.000000
vn -1.000000 0.000000 0.000000
vn -1.000000 0.000000 0.000000
vn 0.000000 1.000000 0.000000
vn 0.000000 1.000000 0.000000
vn 0.000000 1.000000 0.000000
vn 0.000000 1.000000 0.000000
vn -0.000000 0.000000 1.000000
vn -0.000000 0.000000 1.000000
vn -0.000000 0.000000 1.000000
vn -0.000000 0.000000 1.000000
vn 0.000000 0.000000 1.000000
vn 0.000000 0.000000 1.000000
vn 0.000000 0.000000 1.000000
vn 0.000000 0.000000 1.000000
vn 0.000000 -1.000000 0.000000
vn 0.000000 -1.000000 0.000000
vn 0.000000 -1.000000 0.000000
vn 0.000000 -1.000000 0.000000
vn 0.000000 0.000000 1.000000
vn 0.000000 0.000000 1.000000
vn 0.000000 0.000000 1.000000
vn 0.000000 0.000000 1.000000
vn 0.000000 0.000000 1.000000
vn 0.000000 0.000000 1.000000
vn 0.000000 0.000000 1.000000
vn 0.000000 -1.000000 0.000000
vn 0.000000 -1.000000 0.000000
vn -1.000000 0.000000 0.000000
vn -1.000000 0.000000 0.000000
vn -1.000000 0.000000 0.000000
vn -1.000000 0.000000 0.000000
vn 0.000000 -0.999944 -0.010576
vn 0.000000 -0.999944 -0.010576
vn 0.006137 -0.999979 -0.002261
vn 0.005367 -0.999980 -0.003303
vn 0.000000 -0.999944 -0.010577
vn 0.000000 -0.999944 -0.010577
vn 0.007805 -0.999970 0.000000
vn 0.007805 -0.999970 0.000000
vn 0.000000 0.000000 1.000000
vn 0.000000 0.000000 1.000000
vn 0.000000 0.000000 1.000000
vn 0.000000 0.000000 1.000000
vn 1.000000 0.000000 0.000640
vn 1.000000 0.000000 0.000640
vn 1.000000 0.000000 0.000640
vn 1.000000 0.000000 0.000640
vn 0.000000 0.000000 1.000000
vn 0.000000 0.000000 1.000000
vn 0.000827 0.000000 -1.000000
vn 0.000827 0.000000 -1.000000
vn 0.000827 0.000000 -1.000000
vn 0.000827 0.000000 -1.000000
vn -1.000000 0.000000 0.000000
vn -1.000000 0.000000 0.000000
vn -1.000000 0.000000 0.000000
vn -1.000000 0.000000 0.000000
vn -0.000000 1.000000 0.000000
vn -0.000000 1.000000 0.000000
vn -0.000000 1.000000 0.000000
vn -0.000000 1.000000 0.000000
vn 0.000000 1.000000 0.000000
vn 0.000000 1.000000 0.000000
vn 0.000000 1.000000 0.000000
vn 0.000000 1.000000 0.000000
vn -0.000000 1.000000 0.000000
vn -0.000000 1.000000 0.000000
vn 0.000000 1.000000 0.000000
vn 0.000000 0.000000 1.000000
vn 0.000000 -1.000000 0.000000
vn 0.000000 -1.000000 0.000000
vn -0.000098 0.000091 -1.000000
vn -0.000104 0.000197 -1.000000
vn -0.000104 0.000197 -1.000000
vn -0.000098 0.000091 -1.000000
vn -0.000098 0.000091 -1.000000
vn 0.000000 0.000296 -1.000000
vn 0.000090 0.000308 -1.000000
vn 0.000104 0.000197 -1.000000
vn 0.000104 0.000197 -1.000000
vn -0.000090 0.000308 -1.000000
vn 0.000098 0.000091 -1.000000
vn 0.000098 0.000091 -1.000000
vn 0.000098 0.000091 -1.000000
vn 1.000000 -0.000342 0.000000
vn 1.000000 -0.000342 0.000000
vn 1.000000 -0.000342 0.000000
vn 1.000000 -0.000342 0.000000
vn -0.000515 1.000000 0.000000
vn 0.000000 1.000000 -0.000000
vn 0.000000 1.000000 -0.000000
vn -0.000515 1.000000 0.000000
vn -1.000000 -0.000342 0.000000
vn -1.000000 -0.000342 0.000000
vn -1.000000 -0.000342 0.000000
vn -1.000000 -0.000342 0.000000
vn 0.000515 1.000000 -0.000000
vn 0.000515 1.000000 -0.000000
vn 0.000000 -1.000000 0.000000
vn 0.000000 -1.000000 0.000000
vn 0.000000 0.000000 1.000000
vn 0.000000 0.000000 1.000000
vn 0.000000 0.000000 1.000000
vn 0.000000 0.000000 1.000000
vn 0.000000 0.000000 1.000000
s off
g pCube6
usemtl initialShadingGroup
f 1/1/1 2/2/2 3/3/3 4/4/4
f 5/5/5 1/1/6 4/4/7 6/6/8
f 7/7/9 2/8/10 1/9/11 5/10/12
f 8/11/13 3/3/14 2/2/15 7/12/16
f 6/13/17 4/4/18 3/3/19 8/14/20
f 9/15/21 10/16/22 11/17/23 12/18/24
f 13/19/25 9/15/26 12/18/27 14/20/28
f 15/21/29 10/22/30 9/23/31 13/24/32
f 16/25/33 11/17/34 10/16/35 15/26/36
f 14/27/37 12/18/38 11/17/39 16/28/40
s 1
f 14/29/41 17/30/42 18/31/43 13/32/44
f 19/33/45 15/34/46 13/32/44 18/31/43
f 19/33/45 20/35/47 16/36/48 15/34/46
f 20/35/47 17/30/42 14/29/41 16/36/48
s 2
f 21/37/49 19/38/50 18/39/51 42/73/52
s 1
f 6/42/53 20/35/47 19/33/45 5/41/54
f 22/40/55 8/43/56 7/44/57
f 17/30/42 20/35/47 24/46/58 25/47/59
s 2
f 26/48/60 23/49/61 19/38/50 21/37/49
s off
f 27/50/62 22/51/63 23/49/64 26/48/65
s 3
f 20/35/66 22/40/67 28/52/68 29/53/69
f 24/46/70 20/35/66 29/53/69 30/54/71
f 22/51/67 27/50/72 31/55/73 28/56/68
s 4
f 32/57/74 33/58/75 29/53/76 28/52/77
s off
f 34/59/78 24/46/79 30/54/80 35/60/81
s 4
f 33/58/75 35/60/82 30/54/83 29/53/76
s off
f 27/50/84 36/61/85 37/62/86 31/55/87
f 37/62/88 32/63/89 28/56/90 31/55/91
s 5
f 38/64/92 39/65/93 33/58/94 32/57/95
f 39/65/93 34/59/96 35/60/97 33/58/94
f 36/61/98 38/66/92 32/63/95 37/62/99
f 40/67/100 39/68/93 38/69/92 36/70/101
f 34/71/96 39/68/93 40/67/100 41/72/102
s 1
f 22/40/55 20/35/47 6/42/53 8/43/56
f 23/45/103 7/44/57 5/41/54 19/33/45
f 22/40/55 7/44/57 23/45/103
s off
f 43/74/104 46/77/105 45/76/106 44/75/107
f 47/78/108 48/79/109 46/77/110 43/74/111
f 49/80/112 47/83/113 43/82/114 44/81/115
f 50/84/116 49/85/117 44/75/118 45/76/119
f 48/86/120 50/87/121 45/76/122 46/77/123
f 51/88/124 54/91/125 53/90/126 52/89/127
f 55/92/128 56/93/129 54/91/130 51/88/131
f 57/94/132 55/97/133 51/96/134 52/95/135
f 58/98/136 57/99/137 52/89/138 53/90/139
f 56/100/140 58/101/141 53/90/142 54/91/143
s 6
f 56/102/144 55/105/145 60/104/146 59/103/147
f 61/106/148 60/104/146 55/105/145 57/107/149
f 61/106/148 57/107/149 58/109/150 62/108/151
f 62/108/151 58/109/150 56/102/144 59/103/147
s 7
f 63/110/152 64/113/153 60/112/154 61/111/155
s 6
f 48/114/156 47/115/157 61/106/148 62/108/151
f 65/116/158 49/118/159 50/117/160
f 59/103/147 25/120/161 24/119/162 62/108/151
s 7
f 66/121/163 63/110/152 61/111/155 67/122/164
s off
f 68/123/165 66/121/166 67/122/167 65/124/168
s 9
f 62/108/169 70/126/170 69/125/171 65/116/172
f 24/119/173 71/127/174 70/126/170 62/108/169
f 65/124/172 69/129/171 72/128/175 68/123/176
s 10
f 73/130/177 69/125/178 70/126/179 74/131/180
s off
f 34/132/181 75/133/182 71/127/183 24/119/184
s 10
f 74/131/180 70/126/179 71/127/185 75/133/186
s off
f 68/123/187 72/128/188 77/135/189 76/134/190
f 77/135/191 72/128/192 69/129/193 73/136/194
s 11
f 78/137/195 73/130/196 74/131/197 79/138/198
f 79/138/198 74/131/197 75/133/199 34/132/200
f 76/134/201 77/135/202 73/136/196 78/139/195
f 80/140/203 76/143/204 78/142/195 79/141/198
f 34/144/200 41/145/205 80/140/203 79/141/198
s 6
f 65/116/158 50/117/160 48/114/156 62/108/151
f 67/146/206 61/106/148 47/115/157 49/118/159
f 65/116/158 67/146/206 49/118/159
s 7
f 60/147/154 64/148/153 42/149/207 18/150/208
s 12
f 26/48/209 21/37/210 40/67/211 36/61/212 27/50/213
f 41/72/214 64/113/215 63/110/216 80/140/217
f 41/72/214 42/149/218 64/113/215
f 40/67/211 21/37/210 42/149/218 41/72/214
f 80/140/217 63/110/216 66/121/219 68/123/220 76/143/221
s off
f 18/151/222 17/152/223 81/153/224 82/154/225
s 14
f 17/155/226 25/156/227 83/157/228 81/158/229
s off
f 59/159/230 60/160/231 85/161/232 84/162/233
s 14
f 25/163/227 59/164/234 84/165/235 83/166/228
s 7
f 60/167/154 18/168/208 82/169/236 85/170/237
s 15
f 82/154/238 83/166/239 85/170/240
f 85/170/240 83/166/239 84/162/241
f 82/154/238 81/158/242 83/166/239
